<?xml version="1.0" standalone="no"?>
<!DOCTYPE svg PUBLIC "-//W3C//DTD SVG 20010904//EN"
 "http://www.w3.org/TR/2001/REC-SVG-20010904/DTD/svg10.dtd">
<svg version="1.0" xmlns="http://www.w3.org/2000/svg"
 width="457.000000pt" height="478.000000pt" viewBox="0 0 457.000000 478.000000"
 preserveAspectRatio="xMidYMid meet">

<g transform="translate(0.000000,478.000000) scale(0.100000,-0.100000)"
fill="#000000" stroke="none">
<path d="M1790 4689 c-30 -5 -107 -13 -170 -18 -168 -14 -388 -64 -405 -91
-10 -15 -35 -12 -82 11 l-44 21 -63 -21 c-34 -11 -69 -21 -77 -21 -8 0 -52
-22 -100 -50 -120 -70 -179 -148 -179 -240 0 -38 -3 -42 -38 -56 -20 -8 -46
-19 -57 -23 -11 -5 -38 -16 -61 -26 -86 -35 -194 -146 -279 -287 -75 -123 -78
-131 -86 -233 -8 -103 -16 -147 -44 -250 -31 -112 -37 -140 -38 -166 0 -27 40
-116 100 -222 18 -33 36 -81 40 -113 7 -47 12 -58 38 -72 16 -9 77 -46 135
-82 110 -69 123 -76 208 -111 56 -23 79 -23 362 -2 36 3 90 5 120 6 32 1 66 9
81 18 33 22 113 49 144 49 31 0 94 -29 120 -55 41 -40 54 -45 135 -56 91 -11
116 -20 142 -53 20 -24 23 -90 7 -133 -35 -93 6 -238 101 -356 51 -63 77 -110
105 -192 10 -27 22 -54 26 -59 5 -6 9 -89 9 -186 0 -167 -1 -178 -21 -196 -25
-22 -51 -73 -66 -129 -50 -181 -55 -158 79 -384 l68 -114 0 -93 c0 -51 4 -96
10 -99 6 -3 10 -15 10 -26 0 -11 18 -56 41 -102 41 -84 47 -94 90 -162 33 -52
46 -89 53 -149 7 -56 17 -71 60 -91 95 -43 121 -46 234 -29 58 8 114 20 123
25 10 5 29 9 43 9 14 0 26 5 26 10 0 6 8 10 19 10 48 0 204 89 272 155 55 54
147 172 173 224 21 40 144 171 161 171 30 0 40 33 41 144 2 109 2 110 31 136
91 77 188 154 266 210 49 34 90 67 92 73 2 7 9 71 15 142 5 72 15 175 20 230
6 55 12 125 14 155 4 65 14 108 32 135 7 11 27 54 44 95 115 272 195 397 327
508 34 29 77 73 94 98 57 84 219 414 219 448 0 8 4 17 9 20 14 9 19 55 7 59
-6 2 -51 -5 -101 -15 -103 -21 -253 -49 -275 -52 -9 -1 -21 -5 -28 -10 -6 -4
-18 -4 -24 0 -43 26 -173 141 -293 261 -77 77 -165 160 -195 185 -46 38 -59
57 -74 105 -11 32 -30 79 -43 105 -13 26 -23 53 -23 61 0 7 -18 49 -41 93 -62
120 -71 136 -104 179 -17 22 -41 57 -54 77 l-23 38 25 9 c37 14 67 51 67 83 0
22 -9 33 -40 53 -22 14 -46 25 -53 25 -7 0 -18 5 -23 10 -6 6 -47 13 -91 17
-62 4 -93 2 -135 -12 -88 -27 -192 -12 -341 49 -47 20 -94 36 -104 36 -10 0
-41 -22 -68 -50 -66 -67 -93 -71 -181 -30 -38 18 -100 43 -137 57 -146 51
-245 101 -254 127 -3 12 -6 53 -4 93 1 64 -1 73 -21 87 -12 9 -27 15 -33 15
-5 -1 -35 -6 -65 -10z m65 -127 c0 -112 31 -137 265 -224 63 -23 143 -57 177
-75 34 -18 72 -33 83 -33 31 0 79 27 128 72 24 22 49 38 55 35 77 -29 215 -73
267 -83 87 -19 124 -17 194 6 57 19 110 23 131 10 6 -3 36 -15 68 -25 31 -11
57 -23 57 -27 0 -13 -37 -28 -69 -28 -20 0 -34 -7 -41 -19 -14 -27 -14 -27 18
-58 30 -30 102 -129 102 -140 0 -3 6 -14 14 -22 25 -28 111 -194 131 -253 10
-32 22 -58 26 -58 4 0 10 -18 14 -40 4 -22 11 -42 16 -46 5 -3 9 -14 9 -26 0
-13 41 -60 113 -130 61 -60 167 -163 235 -229 67 -65 127 -119 132 -119 5 0
13 -6 17 -12 4 -7 27 -28 51 -46 38 -30 46 -32 75 -24 17 5 57 15 87 21 30 6
87 17 127 26 40 8 83 15 97 15 25 0 25 0 10 -37 -31 -80 -63 -152 -82 -187 -8
-16 -27 -52 -41 -80 -53 -102 -130 -206 -155 -206 -15 0 -104 -92 -154 -160
-39 -54 -122 -202 -122 -220 0 -9 -34 -86 -95 -215 -43 -91 -43 -94 -60 -270
-8 -82 -19 -193 -25 -245 -6 -52 -12 -111 -14 -130 -2 -19 -4 -38 -5 -41 -1
-4 -47 -40 -103 -80 -117 -85 -223 -174 -260 -217 -22 -26 -26 -42 -31 -138
-5 -90 -9 -109 -24 -117 -36 -19 -129 -124 -166 -187 -118 -201 -267 -319
-462 -364 -44 -10 -88 -22 -97 -27 -10 -5 -39 -9 -65 -10 -27 -1 -59 -4 -73
-8 -28 -8 -68 4 -123 36 -29 18 -37 28 -37 51 0 44 -58 180 -87 203 -7 6 -13
18 -13 27 0 9 -9 25 -19 36 -18 20 -46 84 -69 156 -6 19 -14 78 -18 129 -7 89
-10 100 -53 175 -26 45 -55 97 -64 116 -10 19 -26 49 -37 65 -25 40 -24 93 3
183 17 58 31 84 59 111 l37 36 -2 190 c-2 111 -8 208 -15 234 -7 24 -11 46 -8
48 9 10 196 8 197 -2 1 -5 1 -36 -1 -67 -1 -32 0 -58 2 -58 2 0 39 7 82 15 72
14 105 32 106 58 0 4 31 7 69 7 101 0 101 -1 101 -176 l0 -144 103 0 c60 0
122 -6 150 -15 46 -14 152 -67 172 -86 13 -13 63 -11 67 3 3 7 1 24 -3 38 -31
102 -32 109 -19 155 14 51 32 65 84 65 46 0 51 12 28 58 -44 82 -47 102 -46
265 1 87 6 168 12 180 5 12 18 49 27 82 9 33 32 92 51 130 19 39 34 81 34 93
0 29 -80 109 -139 140 -54 28 -168 46 -229 37 -48 -7 -107 -33 -154 -68 l-27
-20 -43 28 c-37 25 -52 29 -111 28 -42 -1 -76 -7 -90 -16 -15 -10 -43 -70 -91
-198 -38 -101 -82 -202 -96 -224 -15 -22 -39 -61 -53 -86 -32 -56 -76 -95
-121 -108 -47 -12 -127 3 -146 29 -8 11 -28 37 -43 58 -44 57 -97 175 -99 218
0 22 3 55 7 74 41 184 -13 264 -184 277 -71 5 -79 8 -116 43 -22 21 -57 45
-79 54 -43 18 -102 21 -111 6 -3 -5 -18 -10 -33 -10 -15 0 -44 -11 -64 -25
-33 -22 -47 -25 -128 -25 -50 0 -99 -4 -109 -10 -10 -5 -83 -10 -162 -11
l-144 -2 -60 33 c-61 33 -169 98 -217 131 -15 11 -32 19 -38 19 -20 0 -50 41
-50 69 0 16 -19 64 -41 108 -93 174 -92 171 -84 242 4 36 10 71 15 76 4 6 15
53 25 105 10 52 22 99 27 105 4 5 8 44 8 88 0 81 7 99 82 222 10 17 22 39 27
50 5 11 42 53 81 93 56 57 91 82 154 111 44 22 98 42 119 45 32 6 37 11 37 34
0 42 26 128 49 165 35 58 183 143 288 167 51 11 53 11 98 -20 l47 -32 23 22
c41 39 164 70 355 90 192 20 263 29 268 35 17 17 27 -9 27 -73z m1128 -1952
c43 -13 157 -103 157 -126 0 -8 -10 -34 -22 -57 -39 -74 -70 -165 -90 -267
-22 -111 -7 -369 23 -406 7 -8 -1 -19 -25 -33 -19 -12 -45 -38 -57 -57 -19
-32 -21 -45 -16 -115 3 -43 4 -79 3 -79 -1 0 -30 13 -64 30 -33 16 -74 32 -89
36 -15 3 -40 10 -54 15 -14 6 -64 11 -110 12 l-84 2 -2 139 c-2 98 -6 143 -15
152 -7 7 -53 18 -103 24 -136 18 -130 18 -131 -10 -1 -49 -3 -50 -54 -50 l-50
0 0 65 c0 63 -1 65 -22 60 -13 -3 -72 -6 -132 -7 -80 -2 -110 0 -113 10 -3 9
11 12 51 12 30 0 65 4 78 9 24 9 108 89 108 103 0 4 20 40 44 80 25 40 70 141
101 223 84 224 77 212 138 217 69 5 104 -5 144 -44 l33 -32 38 35 c20 18 48
40 61 48 54 30 167 35 254 11z"/>
<path d="M2427 4174 c-4 -4 -7 -30 -7 -59 0 -80 -6 -83 -145 -87 l-120 -3 -2
-42 c-3 -53 7 -57 141 -56 55 1 105 -1 112 -4 10 -4 13 -47 13 -189 0 -200 -3
-210 -50 -151 -14 17 -77 91 -140 163 -63 72 -125 145 -139 162 -14 17 -28 31
-33 32 -10 0 28 -58 122 -188 45 -61 81 -116 81 -122 0 -6 -12 -3 -27 8 -25
17 -49 32 -119 71 -11 5 -76 44 -146 86 -69 41 -131 75 -137 75 -25 0 -5 -18
76 -70 47 -30 114 -76 149 -102 36 -25 70 -48 77 -51 7 -2 10 -7 7 -10 -5 -6
-60 -1 -255 24 -44 5 -116 14 -160 19 -212 24 -208 24 -203 9 2 -8 18 -15 34
-17 30 -2 151 -26 214 -42 19 -5 55 -13 80 -19 25 -6 75 -17 111 -26 36 -8 79
-15 97 -15 17 0 34 -4 37 -10 3 -5 3 -10 -2 -10 -4 -1 -129 -3 -278 -6 -283
-5 -356 -10 -320 -24 18 -7 71 -10 375 -26 58 -3 114 -7 125 -9 11 -1 29 -3
40 -4 37 -3 -6 -21 -50 -21 -52 0 -271 -29 -311 -41 -17 -5 -45 -9 -62 -9 -18
0 -32 -5 -32 -11 0 -8 12 -9 38 -5 20 4 75 8 122 11 47 2 141 9 210 14 218 19
245 20 230 15 -8 -3 -34 -14 -56 -24 -23 -11 -54 -22 -68 -26 -14 -3 -29 -10
-32 -15 -3 -5 -14 -9 -25 -9 -10 0 -19 -4 -19 -10 0 -14 44 -12 87 4 21 8 79
27 128 41 50 15 103 31 119 36 16 5 47 9 70 9 38 0 39 -1 20 -14 -12 -8 -45
-18 -75 -22 -37 -5 -66 -16 -90 -35 -20 -16 -41 -29 -45 -29 -12 0 -79 -128
-72 -136 4 -3 17 14 29 38 32 61 35 32 4 -43 -14 -34 -25 -68 -25 -76 0 -7 -9
-13 -20 -13 -24 0 -25 9 -5 36 16 21 20 44 7 44 -12 0 -42 -78 -42 -111 l0
-31 73 6 c39 2 132 8 206 11 117 6 135 5 143 -9 12 -21 64 -21 76 0 7 13 29
15 138 13 233 -4 276 -2 284 12 5 7 5 19 0 28 -4 9 -30 63 -56 120 -42 89 -55
108 -91 131 -50 32 -47 45 6 23 59 -26 72 -30 161 -58 47 -15 89 -31 94 -36 6
-5 19 -9 31 -9 12 0 26 -5 33 -12 9 -9 15 -9 23 -1 12 12 -20 30 -82 48 -13 3
-40 14 -59 22 -62 27 -94 40 -143 58 -27 9 -47 19 -45 21 4 4 127 -11 218 -27
30 -5 84 -12 120 -14 36 -3 87 -10 113 -16 35 -8 52 -8 59 -1 14 14 10 15 -92
37 -41 9 -84 21 -95 25 -22 9 -175 49 -217 57 -16 3 -28 9 -28 14 0 5 80 9
178 10 97 1 196 1 220 1 45 1 56 12 20 21 -13 3 -86 9 -163 12 -246 11 -276
13 -282 18 -3 4 5 8 18 11 72 17 111 27 174 44 39 11 102 29 140 39 39 11 80
25 90 32 17 10 11 11 -35 6 -56 -6 -132 -19 -205 -35 -22 -5 -69 -12 -105 -15
-36 -3 -85 -10 -109 -16 -24 -5 -45 -8 -48 -6 -2 2 11 16 29 29 18 14 50 41
70 59 20 19 54 48 75 66 92 76 118 101 109 110 -5 4 -11 2 -13 -4 -3 -7 -8
-13 -13 -13 -5 0 -57 -33 -117 -72 -167 -113 -253 -165 -253 -154 0 5 90 151
120 196 124 183 134 200 110 185 -9 -6 -168 -194 -216 -257 -12 -15 -47 -56
-79 -91 -31 -36 -67 -82 -79 -103 -12 -22 -28 -39 -36 -39 -13 0 -15 31 -18
190 -1 105 1 196 6 203 6 8 46 13 126 16 64 2 122 8 127 13 6 6 9 28 7 49 l-3
39 -120 -3 c-66 -1 -125 1 -132 5 -7 5 -13 37 -15 73 l-3 65 -40 3 c-23 2 -44
0 -48 -4z m239 -727 c16 -8 40 -19 54 -25 25 -11 25 -11 -7 -11 -17 -1 -35 4
-38 9 -3 6 -25 10 -48 10 -38 0 -39 1 -21 15 24 18 25 18 60 2z m-126 -37 c12
-7 12 -12 2 -22 -10 -10 -17 -8 -34 10 -22 21 -22 22 -3 22 11 0 27 -5 35 -10z
m-62 -20 c28 -14 42 -27 42 -40 0 -16 -4 -18 -22 -12 -35 12 -220 2 -215 -11
2 -7 40 -10 112 -9 78 1 111 -2 117 -11 4 -6 8 -47 8 -89 l0 -78 -35 20 c-39
22 -93 26 -125 10 -11 -5 -29 -14 -40 -20 -29 -15 -110 -13 -116 3 -2 7 11 53
31 102 19 50 35 96 35 102 0 8 13 13 33 13 19 0 37 3 41 7 8 8 64 30 82 32 5
0 29 -8 52 -19z m232 0 l67 -20 32 -75 c17 -41 31 -77 31 -79 0 -3 5 -17 11
-33 6 -15 10 -30 10 -33 -2 -9 -97 2 -136 16 -22 7 -62 14 -90 14 -45 0 -48 1
-33 16 13 14 22 14 50 5 26 -9 123 -10 157 -2 2 1 -2 7 -9 15 -8 11 -24 13
-58 9 -26 -3 -63 -1 -83 5 -43 12 -94 -9 -85 -35 7 -16 -10 -43 -25 -43 -5 0
-9 31 -9 70 0 69 0 70 33 84 20 8 38 10 49 4 28 -14 158 -7 158 9 0 7 -3 13
-7 14 -72 5 -205 4 -209 -3 -8 -12 -24 0 -24 18 0 22 51 63 79 64 13 0 54 -9
91 -20z m167 -112 c-3 -8 -6 -5 -6 6 -1 11 2 17 5 13 3 -3 4 -12 1 -19z m52
-79 c17 -33 31 -67 31 -75 0 -24 -20 -15 -32 14 -6 15 -19 46 -29 69 -22 49
-22 53 -10 53 5 0 23 -27 40 -61z m-312 -85 c-3 -3 -12 -4 -19 -1 -8 3 -5 6 6
6 11 1 17 -2 13 -5z"/>
<path d="M2428 3295 c-3 -3 -40 -7 -83 -8 -52 -1 -80 -6 -83 -14 -5 -18 149
-18 166 -1 10 10 17 10 33 0 27 -17 48 -4 24 15 -19 13 -47 17 -57 8z"/>
<path d="M2267 3232 c-9 -2 -17 -7 -17 -12 0 -8 228 -19 239 -12 3 1 -1 8 -8
15 -11 11 -168 18 -214 9z"/>
<path d="M2580 3276 c-16 -16 -12 -29 8 -21 9 3 61 6 115 6 58 -1 97 3 97 9 0
6 -8 10 -17 11 -136 5 -194 4 -203 -5z"/>
<path d="M1925 3330 c-3 -5 3 -10 14 -10 11 0 23 5 26 10 3 6 -3 10 -14 10
-11 0 -23 -4 -26 -10z"/>
<path d="M1678 3314 c-3 -3 -23 -7 -43 -10 -48 -6 -55 -10 -55 -37 0 -34 -37
-88 -55 -81 -8 4 -22 0 -31 -7 -12 -10 -18 -9 -31 4 -15 15 -15 17 0 23 17 6
24 34 9 34 -5 0 -17 -9 -27 -20 -20 -23 -14 -50 15 -57 26 -7 25 -19 -5 -47
-18 -16 -21 -26 -13 -34 8 -8 2 -10 -21 -10 -23 1 -31 6 -31 19 0 9 5 19 12
21 12 4 3 28 -11 28 -7 0 -25 -48 -34 -96 -7 -35 6 -48 34 -34 l23 13 -22 8
c-31 12 -27 19 9 19 28 0 30 -2 27 -32 -3 -30 -6 -33 -38 -33 -31 0 -35 -3
-33 -25 5 -58 22 -110 35 -110 8 0 4 48 -9 93 -4 14 0 18 14 15 13 -3 17 -12
16 -32 -2 -22 1 -26 9 -18 21 21 28 13 28 -27 0 -38 1 -39 24 -28 18 9 22 15
14 24 -5 7 -6 22 -2 35 4 13 7 29 6 36 -2 8 10 12 33 12 28 0 35 -4 35 -19 0
-10 -7 -22 -15 -25 -12 -4 -14 -10 -5 -25 16 -31 12 -51 -10 -51 -20 0 -20 0
2 -30 28 -39 41 -38 33 1 -4 17 -1 57 6 89 12 54 15 58 40 58 19 -1 32 -10 45
-32 9 -17 31 -48 47 -68 23 -29 27 -41 19 -51 -14 -16 -6 -27 20 -27 25 0 23
15 -11 65 -30 44 -29 54 3 72 15 8 28 6 54 -9 19 -10 37 -16 41 -13 3 4 -1 10
-10 15 -9 5 -26 18 -39 28 -19 15 -21 22 -12 39 11 19 21 21 132 21 108 1 121
-1 134 -19 13 -20 13 -20 19 0 2 11 2 35 -2 53 -6 30 -8 31 -13 10 -6 -21 -11
-23 -74 -20 l-67 3 -12 47 c-6 26 -9 51 -6 55 12 16 51 33 75 33 26 0 66 -45
66 -74 0 -9 5 -16 10 -16 17 0 11 25 -18 78 -54 99 -206 187 -273 158 -10 -4
-20 -3 -24 3 -7 12 -28 15 -37 5z m42 -27 c0 -34 -29 -54 -81 -56 -42 0 -50 2
-45 15 3 9 6 20 6 25 0 5 12 9 28 10 15 0 36 4 47 9 29 13 45 12 45 -3z m110
-17 c0 -5 -11 -20 -25 -34 -22 -22 -29 -24 -50 -14 -47 21 -23 58 37 58 21 0
38 -4 38 -10z m81 -41 c38 -27 37 -43 -5 -63 -46 -22 -58 -20 -85 8 l-23 25
28 25 c35 31 48 32 85 5z m-251 -28 c0 -5 -7 -14 -15 -21 -8 -7 -15 -21 -15
-31 0 -15 -7 -19 -35 -19 -38 0 -48 19 -14 27 12 4 18 11 15 20 -4 8 -4 19 0
24 7 12 64 12 64 0z m84 0 c12 -19 -7 -41 -35 -41 -28 0 -38 -13 -19 -25 12
-7 -25 -45 -45 -45 -23 0 -18 18 21 71 33 46 65 62 78 40z m61 -45 c16 -12 17
-16 6 -30 -7 -9 -25 -16 -40 -16 -15 0 -33 -9 -41 -20 -8 -11 -20 -20 -27 -20
-7 0 -13 -4 -13 -10 0 -12 2 -12 34 0 29 11 42 -1 30 -28 -4 -9 -8 -26 -8 -37
-1 -16 -7 -20 -30 -18 -36 3 -38 5 -41 45 -2 18 -8 32 -14 31 -6 -2 -11 1 -11
6 0 13 55 51 74 51 9 0 16 8 16 20 0 10 8 24 18 29 22 14 25 13 47 -3z m49
-65 c26 -29 17 -65 -17 -69 -54 -6 -75 35 -34 69 28 23 30 23 51 0z m-270 -63
c-9 -30 -10 -32 -30 -24 -15 6 -15 8 1 26 24 27 38 25 29 -2z m116 -67 c21
-17 22 -21 10 -36 -12 -15 -15 -14 -36 12 -13 15 -23 31 -24 36 0 13 24 7 50
-12z"/>
<path d="M1700 3025 c0 -8 5 -15 10 -15 6 0 10 7 10 15 0 8 -4 15 -10 15 -5 0
-10 -7 -10 -15z"/>
<path d="M1518 3273 c-20 -5 -25 -33 -5 -33 7 0 18 9 25 20 12 20 11 21 -20
13z"/>
<path d="M1400 3156 c0 -10 9 -16 21 -16 24 0 21 23 -4 28 -10 2 -17 -3 -17
-12z"/>
<path d="M1870 2960 c0 -5 5 -10 10 -10 6 0 10 5 10 10 0 6 -4 10 -10 10 -5 0
-10 -4 -10 -10z"/>
<path d="M2380 2950 c0 -5 5 -10 10 -10 6 0 10 5 10 10 0 6 -4 10 -10 10 -5 0
-10 -4 -10 -10z"/>
<path d="M2750 2950 c0 -5 5 -10 10 -10 6 0 10 5 10 10 0 6 -4 10 -10 10 -5 0
-10 -4 -10 -10z"/>
<path d="M3010 2950 c0 -5 5 -10 10 -10 6 0 10 5 10 10 0 6 -4 10 -10 10 -5 0
-10 -4 -10 -10z"/>
<path d="M3040 2950 c0 -5 5 -10 10 -10 6 0 10 5 10 10 0 6 -4 10 -10 10 -5 0
-10 -4 -10 -10z"/>
<path d="M3070 2950 c0 -5 5 -10 10 -10 6 0 10 5 10 10 0 6 -4 10 -10 10 -5 0
-10 -4 -10 -10z"/>
<path d="M2180 2906 c0 -25 5 -46 10 -46 6 0 10 10 10 22 l0 22 16 -22 c16
-23 41 -32 27 -10 -4 7 -7 26 -8 43 0 25 -4 31 -27 33 -27 3 -28 2 -28 -42z
m40 19 c0 -8 -4 -15 -10 -15 -5 0 -10 7 -10 15 0 8 5 15 10 15 6 0 10 -7 10
-15z"/>
<path d="M2350 2941 c0 -5 -9 -11 -21 -14 -16 -4 -20 -12 -17 -34 2 -22 9 -29
31 -31 26 -3 27 -2 27 42 0 25 -4 46 -10 46 -5 0 -10 -4 -10 -9z m0 -46 c0
-14 -4 -25 -10 -25 -5 0 -10 11 -10 25 0 14 5 25 10 25 6 0 10 -11 10 -25z"/>
<path d="M2513 2934 c-4 -11 2 -23 18 -35 13 -10 20 -21 16 -26 -5 -4 -12 -1
-17 7 -5 8 -12 11 -15 8 -11 -11 5 -28 26 -28 31 0 36 30 9 52 -12 10 -20 22
-16 25 4 4 11 1 16 -7 5 -8 12 -11 15 -8 11 11 -5 28 -26 28 -11 0 -22 -7 -26
-16z"/>
<path d="M2703 2936 c-16 -7 -23 -19 -23 -38 0 -16 -4 -28 -10 -28 -5 0 -10
14 -10 30 0 17 -5 30 -11 30 -6 0 -9 -14 -7 -32 2 -28 8 -34 31 -36 24 -3 27
0 28 30 l1 33 7 -29 c9 -45 26 -42 24 5 0 22 -3 41 -5 43 -1 1 -13 -3 -25 -8z"/>
<path d="M2910 2905 c0 -25 5 -45 10 -45 6 0 10 20 10 45 0 25 -4 45 -10 45
-5 0 -10 -20 -10 -45z"/>
<path d="M3250 2904 c0 -44 1 -45 28 -42 21 2 28 9 30 31 3 22 -1 30 -17 34
-12 3 -21 9 -21 14 0 5 -4 9 -10 9 -5 0 -10 -21 -10 -46z m40 -9 c0 -14 -4
-25 -10 -25 -5 0 -10 11 -10 25 0 14 5 25 10 25 6 0 10 -11 10 -25z"/>
<path d="M3320 2905 c0 -25 5 -45 10 -45 6 0 10 20 10 45 0 25 -4 45 -10 45
-5 0 -10 -20 -10 -45z"/>
<path d="M1610 2930 c0 -5 5 -10 11 -10 5 0 7 5 4 10 -3 6 -8 10 -11 10 -2 0
-4 -4 -4 -10z"/>
<path d="M3937 2912 c-14 -15 -48 -33 -74 -40 -56 -16 -74 -24 -128 -57 -22
-13 -47 -22 -56 -19 -17 5 -56 -32 -45 -43 9 -9 108 16 121 31 17 19 96 56
121 56 17 0 28 -8 35 -27 6 -16 15 -36 20 -45 11 -21 12 -58 2 -59 -5 0 -24
-3 -43 -6 -19 -3 -71 -4 -114 -4 -44 0 -84 -3 -90 -8 -6 -5 -29 -11 -51 -14
-22 -2 -50 -8 -62 -12 -16 -5 -23 -2 -28 16 -9 27 15 49 53 49 14 0 22 5 20
13 -7 18 -44 20 -78 4 -16 -9 -44 -19 -62 -22 -37 -8 -109 -51 -121 -71 -4 -8
-16 -14 -27 -14 -26 0 -58 -60 -70 -133 -18 -104 -18 -102 13 -105 37 -4 53
10 62 55 8 42 47 124 68 141 7 6 47 14 87 18 40 3 84 10 97 15 13 5 35 9 48 9
12 0 35 7 51 15 18 9 43 12 69 9 64 -9 142 -7 163 5 12 6 49 11 84 11 61 0 64
1 86 35 28 43 28 65 0 137 -19 49 -28 60 -61 73 -51 20 -59 19 -90 -13z m104
-33 c16 -17 29 -41 29 -54 0 -12 2 -35 5 -51 4 -24 -1 -33 -26 -53 l-30 -24
-28 27 c-25 24 -51 92 -51 136 0 20 35 50 58 50 8 0 27 -14 43 -31z m-527
-195 c11 -29 6 -34 -34 -34 -28 0 -40 4 -40 15 0 30 63 47 74 19z m-134 -54
c0 -5 -4 -10 -10 -10 -5 0 -10 5 -10 10 0 6 5 10 10 10 6 0 10 -4 10 -10z"/>
<path d="M2020 2909 c0 -11 5 -17 10 -14 6 3 10 13 10 21 0 8 -4 14 -10 14 -5
0 -10 -9 -10 -21z"/>
<path d="M2254 2919 c-5 -9 -2 -10 9 -6 22 8 22 -2 0 -18 -20 -15 -9 -35 18
-35 17 0 20 6 17 32 -3 34 -29 50 -44 27z"/>
<path d="M2380 2895 c0 -19 5 -35 10 -35 6 0 10 16 10 35 0 19 -4 35 -10 35
-5 0 -10 -16 -10 -35z"/>
<path d="M2414 2916 c-11 -29 0 -51 26 -51 21 0 25 5 25 30 0 24 -5 31 -23 33
-13 2 -24 -3 -28 -12z m36 -21 c0 -14 -4 -25 -10 -25 -5 0 -10 11 -10 25 0 14
5 25 10 25 6 0 10 -11 10 -25z"/>
<path d="M2584 2919 c-5 -9 -2 -10 9 -6 22 8 22 -2 0 -18 -20 -15 -9 -35 18
-35 17 0 20 6 17 32 -3 34 -29 50 -44 27z"/>
<path d="M2750 2895 c0 -19 5 -35 10 -35 6 0 10 16 10 35 0 19 -4 35 -10 35
-5 0 -10 -16 -10 -35z"/>
<path d="M2780 2922 c0 -4 4 -21 9 -39 6 -21 5 -35 -2 -42 -8 -8 -8 -11 1 -11
14 0 27 25 37 68 4 19 3 32 -4 32 -5 0 -12 -12 -14 -27 l-4 -28 -2 28 c0 15
-5 27 -11 27 -5 0 -10 -3 -10 -8z"/>
<path d="M2844 2919 c-5 -9 -2 -10 9 -6 22 8 22 -2 0 -18 -20 -15 -9 -35 18
-35 17 0 20 6 17 32 -3 34 -29 50 -44 27z"/>
<path d="M2940 2896 c0 -20 5 -36 10 -36 6 0 10 14 10 30 0 17 5 30 10 30 6 0
10 -13 10 -30 0 -16 5 -30 11 -30 6 0 9 14 7 33 -2 27 -8 33 -30 35 -26 3 -28
1 -28 -32z"/>
<path d="M3008 2880 c-2 -30 1 -49 7 -47 13 5 19 97 7 97 -6 0 -12 -23 -14
-50z"/>
<path d="M3040 2895 c0 -19 5 -35 10 -35 6 0 10 16 10 35 0 19 -4 35 -10 35
-5 0 -10 -16 -10 -35z"/>
<path d="M3070 2895 c0 -19 5 -35 10 -35 6 0 10 16 10 35 0 19 -4 35 -10 35
-5 0 -10 -16 -10 -35z"/>
<path d="M3134 2919 c-5 -9 -2 -10 9 -6 22 8 22 -2 0 -18 -20 -15 -9 -35 18
-35 17 0 20 6 17 32 -3 34 -29 50 -44 27z"/>
<path d="M3197 2923 c-13 -12 -7 -33 8 -33 8 0 15 -4 15 -10 0 -5 -8 -7 -17
-3 -14 5 -16 3 -6 -7 6 -7 19 -10 27 -7 20 8 21 37 1 37 -8 0 -15 4 -15 10 0
5 7 6 17 3 11 -4 14 -3 9 5 -8 13 -29 16 -39 5z"/>
<path d="M1617 2893 c-11 -10 -8 -53 3 -53 6 0 10 6 10 14 0 8 7 17 16 20 8 3
12 10 9 16 -7 11 -28 13 -38 3z"/>
<path d="M1840 2884 c0 -12 29 -34 44 -34 17 0 2 27 -19 37 -20 9 -25 8 -25
-3z"/>
<path d="M3103 2855 c0 -8 4 -12 9 -9 4 3 8 9 8 15 0 5 -4 9 -8 9 -5 0 -9 -7
-9 -15z"/>
<path d="M1900 2852 c0 -4 10 -12 22 -17 29 -13 35 -45 12 -62 -10 -7 -15 -15
-13 -18 3 -3 19 9 35 26 l29 31 -30 24 c-30 24 -55 31 -55 16z"/>
<path d="M1400 2825 c0 -8 5 -15 10 -15 6 0 10 7 10 15 0 8 -4 15 -10 15 -5 0
-10 -7 -10 -15z"/>
<path d="M1427 2813 c-11 -10 -8 -18 13 -43 11 -13 23 -20 28 -15 4 4 1 10 -5
12 -7 3 -13 16 -13 29 0 23 -10 31 -23 17z"/>
<path d="M1610 2786 c0 -12 10 -16 35 -16 19 0 35 4 35 9 0 6 -8 9 -17 9 -10
0 -26 3 -35 7 -13 5 -18 3 -18 -9z"/>
<path d="M1490 2735 c18 -22 69 -45 76 -34 8 14 -18 35 -55 42 -29 6 -32 5
-21 -8z"/>
<path d="M1783 2706 c-31 -15 -29 -26 6 -26 29 0 57 21 44 33 -8 9 -23 7 -50
-7z"/>
<path d="M1580 2692 c0 -10 89 -32 126 -32 13 0 24 5 24 10 0 6 -15 10 -34 10
-19 0 -38 5 -41 10 -7 12 -75 14 -75 2z"/>
<path d="M3157 2360 c-38 -30 -46 -84 -17 -115 12 -13 32 -25 43 -27 14 -2 22
-12 25 -33 7 -52 2 -239 -8 -265 -5 -14 -11 -70 -14 -125 -3 -55 -10 -164 -17
-243 -6 -79 -9 -145 -7 -147 2 -3 50 -8 106 -11 l102 -7 -6 124 c-3 68 -7 153
-10 189 -17 235 -24 345 -29 413 -3 43 -8 83 -11 89 -3 5 -20 7 -38 4 -45 -8
-62 5 -36 29 18 17 27 55 15 67 -3 2 -18 3 -35 0 -30 -4 -43 -32 -15 -32 8 0
15 -4 15 -10 0 -5 -8 -10 -17 -10 -32 0 -45 16 -41 51 3 33 5 34 51 37 53 3
60 13 22 30 -36 17 -48 15 -78 -8z"/>
<path d="M3311 2351 c-38 -52 -23 -115 29 -126 42 -9 68 2 86 37 42 81 -63
162 -115 89z m83 -27 c17 -43 -6 -81 -43 -69 -44 14 -32 85 13 85 13 0 27 -7
30 -16z"/>
<path d="M3461 2336 c-15 -62 -14 -106 3 -106 7 0 17 10 20 23 l7 22 9 -22 c5
-13 18 -23 29 -23 13 0 21 8 23 23 4 29 22 29 26 -1 4 -29 38 -26 35 3 -10 85
-19 110 -39 113 -17 2 -23 -4 -27 -27 -8 -40 -19 -39 -40 4 -9 19 -21 35 -26
35 -5 0 -14 -20 -20 -44z"/>
<path d="M3678 2358 c-8 -13 -18 -34 -22 -48 -4 -14 -12 -35 -18 -47 -14 -29
-3 -41 22 -25 24 15 70 16 70 2 0 -5 7 -10 15 -10 8 0 15 7 15 15 0 24 -31 99
-50 118 -16 18 -17 17 -32 -5z m32 -58 c0 -5 -4 -10 -10 -10 -5 0 -10 5 -10
10 0 6 5 10 10 10 6 0 10 -4 10 -10z"/>
<path d="M2820 2362 c-30 -15 -35 -22 -38 -58 -3 -36 1 -44 25 -59 69 -46 173
-10 173 60 0 26 -7 35 -39 53 -46 26 -74 27 -121 4z"/>
</g>
</svg>
